<?xml version="1.0" encoding="utf-8"?>
<svg viewBox="0 0 100 100" xmlns="http://www.w3.org/2000/svg">
  <path d="M 100 50 L 84.73 54.344 C 84.909 52.914 85 51.465 85 50.003 C 85 48.524 84.912 47.075 84.742 45.66 Z M 79.424 55.853 L 79.443 55.868 C 78.669 59.859 77.12 63.498 74.989 66.672 L 74.944 66.667 L 74.966 66.707 C 72.753 69.994 69.915 72.782 66.669 74.945 L 66.667 74.944 L 66.667 74.946 C 63.408 77.117 59.736 78.66 55.871 79.447 L 55.853 79.424 L 55.845 79.452 C 52.066 80.218 48.103 80.262 44.159 79.466 L 44.147 79.424 L 44.12 79.458 C 41.034 78.832 37.961 77.691 34.998 75.98 C 34.429 75.652 33.874 75.306 33.333 74.945 L 33.333 74.944 L 33.332 74.944 C 30.014 72.728 27.218 69.903 25.056 66.667 L 25.056 66.667 L 25.056 66.667 C 22.881 63.411 21.349 59.74 20.576 55.853 L 20.576 55.853 L 20.576 55.853 C 20.196 53.945 20 51.985 20 49.998 C 20 47.98 20.191 46.028 20.553 44.153 L 20.576 44.147 L 20.557 44.132 C 21.331 40.141 22.88 36.502 25.011 33.328 L 25.056 33.333 L 25.034 33.293 C 27.247 30.006 30.085 27.218 33.332 25.055 L 33.333 25.056 L 33.333 25.054 C 36.592 22.883 40.264 21.34 44.129 20.554 L 44.147 20.576 L 44.155 20.548 C 47.934 19.782 51.897 19.739 55.841 20.534 L 55.853 20.576 L 55.88 20.542 C 58.965 21.169 62.039 22.31 65.002 24.021 C 69.056 26.361 72.43 29.569 74.944 33.333 L 74.944 33.333 L 74.944 33.333 C 77.119 36.589 78.651 40.26 79.424 44.147 L 79.424 44.147 L 79.424 44.147 C 79.804 46.055 80 48.015 80 50.003 C 80 52.021 79.809 53.972 79.447 55.846 Z M 96.194 69.134 L 80.424 67.303 C 81.855 64.786 82.975 62.091 83.749 59.278 Z M 85.355 85.355 L 71.486 77.629 C 73.799 75.831 75.858 73.763 77.629 71.486 Z M 69.134 96.194 L 59.301 83.778 C 62.008 83.019 64.691 81.91 67.303 80.423 Z M 50 100 L 45.668 84.772 C 48.506 85.136 51.413 85.151 54.328 84.784 Z M 30.866 96.194 L 32.697 80.424 C 35.215 81.856 37.907 82.983 40.709 83.765 Z M 14.645 85.355 L 22.351 71.523 C 24.15 73.817 26.224 75.865 28.508 77.632 Z M 3.806 69.134 L 16.22 59.303 C 16.992 62.158 18.111 64.838 19.519 67.31 Z M 0 50 L 15.27 45.656 C 15.091 47.086 15 48.535 15 49.997 C 15 51.476 15.088 52.925 15.257 54.34 Z M 3.806 30.866 L 19.576 32.697 C 18.145 35.214 17.025 37.909 16.251 40.722 Z M 14.645 14.645 L 28.513 22.371 C 26.2 24.169 24.142 26.236 22.371 28.514 Z M 30.866 3.806 L 40.699 16.222 C 37.992 16.981 35.309 18.09 32.697 19.576 Z M 50 0 L 54.332 15.229 C 51.494 14.864 48.587 14.849 45.672 15.216 Z M 69.134 3.806 L 67.303 19.576 C 64.785 18.144 62.093 17.018 59.291 16.235 Z M 85.355 14.645 L 77.649 28.477 C 75.85 26.184 73.776 24.135 71.492 22.368 Z M 96.194 30.866 L 83.78 40.697 C 83.008 37.842 81.889 35.163 80.48 32.69 Z" style="fill: rgb(255, 128, 0);"/>
  <g transform="matrix(1, 0, 0, 1, -240.495148, -232.257507)">
    <path d="M 288.76 262.269 C 278.531 263.15 270.495 271.793 270.495 282.248 C 270.495 293.287 279.455 302.247 290.495 302.247 C 301.535 302.247 310.495 293.287 310.495 282.248 C 310.499 281.605 310.459 280.963 310.401 280.324 C 309.815 276.661 306.472 272.581 300.939 272.581 C 296.27 272.581 293.55 275.497 293.55 278.914 C 293.55 281.471 294.995 283.248 297.384 283.248 C 301.218 283.248 302.051 278.748 300.051 276.915 C 302.794 278.698 302.44 281.386 302.44 281.386 C 302.44 286.721 297.664 292.789 289.773 292.789 C 280.938 292.789 276.495 285.136 276.495 279.08 C 276.495 274.375 279.513 266.132 288.76 262.268 Z" style="fill: rgb(255, 192, 128);"/>
    <path d="M 294.384 263.13 C 289.103 263.13 286.939 266.497 286.939 269.352 C 286.939 272.831 289.282 273.8 290.717 273.8 C 292.997 273.8 294.384 271.84 294.384 270.081 C 294.384 268.962 294.042 268.396 293.957 268.273 C 296.026 269.772 296.603 271.585 296.603 271.585 C 296.603 271.585 297.607 270.692 300.894 270.692 C 302.846 270.692 305.992 271.161 308.491 273.578 C 305.636 267.467 299.575 263.13 294.383 263.13 Z M 278.662 276.686 C 278.662 276.686 278.266 277.831 278.266 279.581 C 278.266 285.724 283.129 291.081 289.939 291.081 C 294.901 291.081 298.936 287.97 300.602 283.803 C 300.653 283.585 299.742 285.026 297.297 285.026 C 294.794 285.026 293.439 283.467 293.439 283.467 C 293.439 283.467 291.467 285.13 288.05 285.13 C 281.76 285.13 278.661 279.781 278.661 276.686 Z" style="fill: rgb(255, 255, 255);"/>
  </g>
</svg>